<?xml version="1.0" encoding="utf-8"?>
<!-- Generator: Adobe Illustrator 15.1.0, SVG Export Plug-In . SVG Version: 6.00 Build 0)  -->
<!DOCTYPE svg PUBLIC "-//W3C//DTD SVG 1.1//EN" "http://www.w3.org/Graphics/SVG/1.1/DTD/svg11.dtd">
<svg version="1.1" id="Слой_1" xmlns="http://www.w3.org/2000/svg" xmlns:xlink="http://www.w3.org/1999/xlink" x="0px" y="0px"
	 width="18px" height="18px" viewBox="0 0 18 18" enable-background="new 0 0 18 18" xml:space="preserve">
<path fill="#FFFFFF" d="M15.365,0H2.561C1.146,0,0,1.146,0,2.561v5.184c1.249-1.059,3.219-1.589,5.915-1.589h1.829V4.066
	c0-0.143,0.052-0.265,0.155-0.368c0.104-0.103,0.226-0.155,0.367-0.155S8.53,3.595,8.633,3.698l4.18,4.18
	c0.104,0.104,0.156,0.226,0.156,0.368s-0.053,0.264-0.156,0.367l-4.18,4.18c-0.104,0.104-0.226,0.155-0.367,0.155
	s-0.264-0.052-0.367-0.155s-0.155-0.227-0.155-0.368v-2.089H5.915c-0.534,0-1.011,0.017-1.433,0.048
	c-0.422,0.033-0.841,0.092-1.257,0.176c-0.417,0.085-0.778,0.201-1.086,0.347c-0.308,0.147-0.595,0.337-0.861,0.568
	s-0.484,0.506-0.653,0.824c-0.168,0.319-0.3,0.696-0.396,1.131c-0.095,0.436-0.143,0.928-0.143,1.478
	c0,0.301,0.014,0.635,0.041,1.005c0,0.033,0.007,0.097,0.021,0.19c0.009,0.063,0.014,0.113,0.017,0.158
	c0.363,0.972,1.297,1.665,2.397,1.665h12.805c1.414,0,2.561-1.146,2.561-2.561V2.561C17.926,1.146,16.779,0,15.365,0z"/>
</svg>
