<?xml version="1.0"?>
<!--Icons from directory ""-->
<svg xmlns="http://www.w3.org/2000/svg" width="21" height="176" viewBox="0 0 21 176"><svg xmlns:xlink="http://www.w3.org/1999/xlink" id="hifi" xml:space="preserve" height="19" viewBox="0 0 14 19" width="14" version="1.1" y="0" x="0px" enable-background="new 0 0 14 19"><g fill="#A5C6E8"><path d="m7.119 0.644c0-0.045-0.016-0.085-0.044-0.122-0.03-0.036-0.077-0.064-0.144-0.087-0.068-0.023-0.158-0.04-0.269-0.054-0.112-0.013-0.253-0.02-0.423-0.02-0.175 0-0.32 0.007-0.434 0.02-0.115 0.014-0.204 0.031-0.269 0.054s-0.112 0.051-0.141 0.087-0.043 0.077-0.043 0.122v3.191h-3.253v-3.191c0-0.045-0.013-0.085-0.04-0.122-0.027-0.036-0.074-0.064-0.141-0.087s-0.158-0.04-0.269-0.054c-0.112-0.013-0.255-0.02-0.43-0.02-0.17 0-0.312 0.007-0.427 0.02-0.114 0.014-0.205 0.031-0.272 0.054s-0.116 0.051-0.145 0.087-0.043 0.077-0.043 0.122v8.211c0 0.044 0.014 0.084 0.043 0.121 0.029 0.035 0.078 0.064 0.145 0.086 0.067 0.023 0.158 0.041 0.272 0.054 0.114 0.014 0.256 0.021 0.427 0.021 0.175 0 0.318-0.007 0.43-0.021 0.111-0.013 0.202-0.031 0.269-0.054 0.067-0.022 0.114-0.051 0.141-0.086 0.027-0.037 0.04-0.077 0.04-0.121v-3.515h3.252v3.515c0 0.044 0.014 0.084 0.043 0.121 0.03 0.035 0.077 0.064 0.142 0.086 0.065 0.023 0.154 0.041 0.269 0.054 0.114 0.014 0.259 0.021 0.434 0.021 0.17 0 0.311-0.007 0.423-0.021 0.111-0.013 0.202-0.031 0.269-0.054 0.067-0.022 0.114-0.051 0.143-0.086 0.029-0.037 0.044-0.077 0.044-0.121v-8.211z"/><path d="m10.469 2.888c0-0.045-0.015-0.084-0.04-0.118-0.029-0.034-0.074-0.062-0.139-0.087-0.065-0.024-0.151-0.044-0.259-0.057-0.107-0.014-0.244-0.021-0.409-0.021-0.166 0-0.304 0.007-0.411 0.021-0.107 0.013-0.193 0.032-0.258 0.057s-0.11 0.053-0.138 0.087c-0.026 0.033-0.041 0.073-0.041 0.118v5.98c0 0.044 0.015 0.083 0.041 0.117 0.028 0.034 0.073 0.061 0.138 0.085 0.064 0.022 0.15 0.038 0.258 0.05 0.107 0.011 0.245 0.017 0.411 0.017 0.165 0 0.302-0.006 0.409-0.017 0.107-0.012 0.193-0.028 0.259-0.05 0.065-0.023 0.11-0.051 0.139-0.084 0.025-0.034 0.04-0.073 0.04-0.117v-5.981zm-0.075-2.725c-0.134-0.127-0.39-0.191-0.766-0.191-0.38 0-0.64 0.066-0.775 0.198-0.137 0.132-0.207 0.368-0.207 0.708 0 0.327 0.066 0.553 0.199 0.679 0.131 0.125 0.389 0.188 0.769 0.188 0.376 0 0.635-0.065 0.773-0.195s0.208-0.365 0.208-0.706c0.001-0.326-0.067-0.553-0.201-0.681z"/><path d="m5.193 10.613c-0.011-0.094-0.029-0.169-0.054-0.225-0.024-0.056-0.053-0.096-0.083-0.12-0.032-0.025-0.067-0.037-0.107-0.037h-4.093c-0.147 0-0.272 0.042-0.373 0.131-0.101 0.086-0.151 0.229-0.151 0.426v7.883c0 0.048 0.014 0.091 0.043 0.127s0.078 0.065 0.145 0.09 0.158 0.045 0.272 0.058c0.114 0.014 0.256 0.021 0.427 0.021 0.175 0 0.318-0.008 0.43-0.021 0.111-0.013 0.203-0.032 0.272-0.058 0.069-0.024 0.118-0.054 0.145-0.09s0.041-0.079 0.041-0.127v-3.238h2.667c0.041 0 0.076-0.014 0.107-0.039 0.031-0.022 0.059-0.064 0.083-0.122 0.025-0.06 0.043-0.133 0.054-0.223 0.012-0.091 0.018-0.202 0.018-0.336 0-0.135-0.006-0.246-0.018-0.336-0.011-0.091-0.029-0.162-0.054-0.216-0.024-0.054-0.053-0.092-0.083-0.113-0.032-0.022-0.067-0.034-0.107-0.034h-2.668v-2.338h2.842c0.041 0 0.076-0.014 0.107-0.041 0.031-0.026 0.059-0.067 0.083-0.121 0.025-0.054 0.043-0.126 0.054-0.219 0.012-0.09 0.018-0.203 0.018-0.338 0-0.134-0.005-0.249-0.017-0.344z"/><path d="m8.103 12.718c0-0.046-0.013-0.084-0.04-0.119-0.026-0.032-0.072-0.062-0.138-0.086-0.065-0.025-0.151-0.045-0.259-0.058-0.107-0.014-0.244-0.02-0.409-0.02-0.166 0-0.303 0.006-0.411 0.02-0.108 0.013-0.194 0.032-0.258 0.058-0.065 0.024-0.111 0.054-0.137 0.086-0.027 0.035-0.041 0.073-0.041 0.119v5.98c0 0.044 0.014 0.082 0.041 0.117 0.026 0.032 0.072 0.062 0.137 0.084 0.064 0.021 0.15 0.038 0.258 0.05 0.107 0.012 0.245 0.018 0.411 0.018 0.165 0 0.301-0.006 0.409-0.018s0.194-0.028 0.259-0.05 0.111-0.052 0.138-0.084c0.027-0.035 0.04-0.073 0.04-0.117v-5.98zm-0.075-2.726c-0.134-0.128-0.39-0.191-0.766-0.191-0.38 0-0.64 0.065-0.776 0.198-0.136 0.132-0.205 0.369-0.205 0.709 0 0.328 0.066 0.553 0.199 0.68 0.131 0.124 0.389 0.188 0.769 0.188 0.376 0 0.635-0.065 0.773-0.195 0.139-0.131 0.208-0.365 0.208-0.705 0-0.329-0.067-0.556-0.202-0.684z"/></g></svg><svg xmlns:xlink="http://www.w3.org/1999/xlink" id="karaoke" xml:space="preserve" height="17" viewBox="0 0 17 17" width="17" version="1.1" y="19" x="0px" enable-background="new 0 0 17 17"><path d="m15.642 5.3h-14.283c-0.75 0-1.359 0.609-1.359 1.358v2.418c0 0.751 0.609 1.359 1.359 1.359h14.282c0.75 0 1.359-0.608 1.359-1.359v-2.418c0.001-0.749-0.608-1.358-1.358-1.358zm-3.285 4.194c-0.449 0-0.813-0.363-0.813-0.813 0-0.449 0.364-0.813 0.813-0.813s0.813 0.364 0.813 0.813c0.001 0.45-0.363 0.813-0.813 0.813zm2.52 0c-0.449 0-0.813-0.363-0.813-0.813 0-0.449 0.364-0.813 0.813-0.813s0.813 0.364 0.813 0.813c0 0.45-0.364 0.813-0.813 0.813z" fill="#A5C6E8"/></svg><svg xmlns:xlink="http://www.w3.org/1999/xlink" id="konferenzionnoe" xml:space="preserve" height="17" viewBox="0 0 17 17" width="17" version="1.1" y="36" x="0px" enable-background="new 0 0 17 17"><g fill="#A5C6E8"><path d="m15.207 7.379c0.594-0.693 0.953-1.594 0.953-2.579 0-2.191-1.777-3.968-3.969-3.968-0.98 0-1.879 0.356-2.572 0.946l5.588 5.601z"/><path d="m11.195 8.643c0.318 0.082 0.652 0.126 0.996 0.126 0.965 0 1.852-0.345 2.537-0.918l-5.582-5.596c-0.576 0.688-0.923 1.576-0.923 2.545 0 0.34 0.042 0.671 0.124 0.986l2.848 2.857z"/><path d="m7.833 6.465l-4.559 4.538c-0.182 0.173-0.197 0.451-0.034 0.622l1.816 1.905c0.163 0.17 0.442 0.169 0.624-0.004l4.75-4.337-2.597-2.724z"/><path d="m3.954 13.657l-0.639-0.639-1.77 1.782c-0.007-0.001-0.014-0.001-0.02-0.001-0.378 0-0.685 0.307-0.685 0.685s0.307 0.685 0.685 0.685c0.378 0 0.685-0.307 0.685-0.685 0-0.023-0.002-0.046-0.003-0.068l1.747-1.759z"/></g></svg><svg xmlns:xlink="http://www.w3.org/1999/xlink" id="muzyukalnoe" xml:space="preserve" height="17" viewBox="0 0 17 17" width="17" version="1.1" y="53" x="0px" enable-background="new 0 0 17 17"><g fill="#A5C6E8"><path d="m9.207 11.111h-5.682c-0.527 0.002-0.953 0.428-0.953 0.952v0.29c0 0.528 0.426 0.952 0.951 0.952l5.682 0.002c0.526 0 0.954-0.426 0.954-0.954v-0.29c0-0.529-0.426-0.952-0.952-0.952z"/><path d="m9.207 7.335h-5.682c-0.527 0.002-0.954 0.428-0.954 0.953v0.292c0 0.527 0.426 0.95 0.952 0.95l5.682 0.002c0.524 0 0.954-0.425 0.954-0.952v-0.292c0-0.526-0.426-0.953-0.952-0.953z"/><path d="m9.207 3.552h-5.682c-0.527 0.002-0.954 0.427-0.954 0.953v0.29c0 0.527 0.426 0.951 0.952 0.951l5.682 0.002c0.524 0 0.954-0.426 0.954-0.953v-0.291c0-0.526-0.426-0.952-0.952-0.952z"/></g><path stroke="#A5C6E8" stroke-miterlimit="10" d="m9.295 0.862c1.589 0 2.878 1.256 2.878 2.801v9.561c0 1.549-1.289 2.801-2.878 2.801h-4.76c-1.59 0-2.878-1.252-2.878-2.801v-9.562c0-1.545 1.288-2.801 2.878-2.801l4.76 0.001z" fill="none"/><path d="m1.327-0.055c-0.525 0-0.952 0.426-0.951 0.952l-0.001 8.239v6.816c0.001 0.528 0.428 0.952 0.952 0.952l1.007 0.02c0.526 0 0.95-0.427 0.95-0.95l0.002-15.057c0-0.525-0.426-0.953-0.952-0.953l-1.007-0.019z" fill="#A5C6E8"/></svg><svg xmlns:xlink="http://www.w3.org/1999/xlink" id="podiumy" xml:space="preserve" height="17" viewBox="0 0 17 17" width="17" version="1.1" y="70" x="0px" enable-background="new 0 0 17 17"><g fill="#A5C6E8"><path d="m5.954 16.12v-5.31 3.354-9.987c0-0.486-0.396-0.881-0.882-0.881h-0.271c-0.488 0-0.882 0.395-0.882 0.881v11.941c0 0.486 0.394 0.882 0.882 0.882h0.271c0.486 0.002 0.882-0.395 0.882-0.88z"/><path d="m12.953 16.12v-5.31 3.354-9.987c0-0.486-0.395-0.881-0.881-0.881h-0.271c-0.488 0-0.881 0.395-0.881 0.881v11.941c0 0.486 0.393 0.882 0.881 0.882h0.271c0.487 0.002 0.881-0.395 0.881-0.88z"/><path d="m13.633 3.296h-3.951-6.314c-0.487 0-0.881 0.395-0.881 0.881v0.271c0 0.487 0.395 0.881 0.881 0.881l10.263 0.001c0.486 0 0.883-0.395 0.883-0.882v-0.271c0-0.487-0.395-0.882-0.881-0.881z"/><path d="m12.064 14.296l-0.951-0.001h-6.312c-0.487 0.002-0.882 0.396-0.882 0.883v0.271c0 0.487 0.395 0.881 0.881 0.881l7.264 0.001c0.486 0 0.881-0.395 0.881-0.882v-0.271c0.002-0.488-0.394-0.883-0.881-0.882z"/><path d="m9.449 4.45v-2.45c0-0.486-0.395-0.881-0.881-0.881h-0.271c-0.488 0-0.881 0.395-0.881 0.881v2.448c0 0.486 0.393 0.882 0.881 0.882h0.271c0.487 0.002 0.881-0.394 0.881-0.88z"/></g></svg><svg xmlns:xlink="http://www.w3.org/1999/xlink" id="recall" xml:space="preserve" height="21" viewBox="0 0 21 21" width="21" version="1.1" y="87" x="0px" enable-background="new 0 0 21 21"><g fill="#fff">	<path d="m17.582 15.58c-0.165-0.097-0.4-0.227-0.703-0.392-0.305-0.165-0.58-0.316-0.827-0.455-0.248-0.14-0.479-0.274-0.697-0.404-0.034-0.025-0.144-0.102-0.325-0.229-0.183-0.125-0.337-0.219-0.462-0.279-0.127-0.061-0.25-0.091-0.372-0.091-0.174 0-0.391 0.123-0.651 0.37-0.26 0.248-0.498 0.517-0.716 0.808-0.217 0.292-0.447 0.561-0.69 0.808-0.243 0.248-0.442 0.371-0.6 0.371-0.078 0-0.175-0.021-0.292-0.064-0.117-0.044-0.207-0.08-0.267-0.11-0.062-0.031-0.165-0.092-0.313-0.183-0.147-0.092-0.229-0.142-0.248-0.149-1.189-0.661-2.209-1.416-3.061-2.268-0.851-0.85-1.605-1.87-2.266-3.06-0.009-0.018-0.059-0.101-0.15-0.247-0.091-0.149-0.152-0.253-0.182-0.314-0.031-0.061-0.067-0.15-0.111-0.267-0.043-0.116-0.065-0.214-0.065-0.292 0-0.156 0.123-0.356 0.371-0.599 0.248-0.244 0.517-0.473 0.808-0.69s0.56-0.456 0.808-0.716 0.371-0.478 0.371-0.651c0-0.122-0.03-0.246-0.091-0.372s-0.154-0.28-0.28-0.462c-0.127-0.183-0.202-0.291-0.228-0.326-0.131-0.217-0.265-0.45-0.404-0.697s-0.291-0.523-0.456-0.827-0.295-0.539-0.391-0.703c-0.304-0.608-0.533-0.938-0.69-0.99-0.061-0.026-0.152-0.039-0.273-0.039-0.234 0-0.541 0.043-0.919 0.13-0.377 0.087-0.675 0.178-0.892 0.274-0.434 0.182-0.894 0.712-1.38 1.589-0.443 0.816-0.665 1.623-0.665 2.422 0 0.234 0.016 0.462 0.046 0.684 0.031 0.221 0.085 0.47 0.162 0.748 0.079 0.278 0.142 0.484 0.19 0.619s0.136 0.376 0.267 0.723c0.13 0.348 0.208 0.56 0.235 0.638 0.303 0.851 0.664 1.61 1.081 2.279 0.686 1.112 1.622 2.26 2.807 3.445s2.333 2.12 3.444 2.807c0.669 0.416 1.429 0.776 2.279 1.08 0.078 0.026 0.291 0.104 0.639 0.234 0.348 0.131 0.588 0.22 0.723 0.267 0.134 0.049 0.341 0.111 0.618 0.188 0.278 0.08 0.527 0.134 0.749 0.164s0.45 0.045 0.684 0.045c0.799 0 1.606-0.221 2.423-0.664 0.877-0.485 1.406-0.946 1.589-1.38 0.096-0.217 0.187-0.515 0.272-0.893 0.087-0.377 0.131-0.684 0.131-0.918 0-0.122-0.013-0.213-0.039-0.273-0.053-0.156-0.384-0.386-0.991-0.689z"/>	<path d="m20.778 0.18c-0.147-0.148-0.323-0.222-0.525-0.222h-5.23c-0.203 0-0.378 0.074-0.526 0.222-0.147 0.147-0.222 0.323-0.222 0.525s0.074 0.377 0.222 0.525l1.682 1.681-3.876 3.876c-0.078 0.079-0.117 0.168-0.117 0.269 0 0.102 0.039 0.191 0.117 0.269l1.331 1.331c0.078 0.078 0.167 0.117 0.269 0.117 0.101 0 0.19-0.039 0.269-0.117l3.876-3.876 1.682 1.682c0.148 0.147 0.322 0.222 0.525 0.222 0.202 0 0.378-0.074 0.525-0.222 0.147-0.149 0.22-0.323 0.22-0.526v-5.23c0-0.203-0.073-0.378-0.222-0.526z"/></g></svg><svg xmlns:xlink="http://www.w3.org/1999/xlink" id="snyato" xml:space="preserve" height="17" viewBox="0 0 17 17" width="17" version="1.1" y="108" x="0px" enable-background="new 0 0 17 17"><path d="m8.5 0.886c-4.205 0-7.614 3.409-7.614 7.614 0 4.206 3.409 7.614 7.614 7.614s7.615-3.408 7.615-7.614c-0.001-4.205-3.411-7.614-7.615-7.614zm4.232 11.96l-0.191 0.19c-0.344 0.346-0.904 0.345-1.246 0.001l-2.796-2.795-2.796 2.796c-0.343 0.343-0.903 0.344-1.246-0.002l-0.191-0.191c-0.346-0.345-0.344-0.905-0.001-1.247l2.795-2.795-2.795-2.794c-0.344-0.344-0.344-0.903 0.001-1.248l0.191-0.191c0.344-0.344 0.903-0.344 1.246 0l2.795 2.795 2.796-2.796c0.344-0.343 0.901-0.344 1.246 0.001l0.191 0.191c0.344 0.344 0.345 0.903 0.001 1.246l-2.794 2.796 2.797 2.797c0.343 0.342 0.343 0.903-0.003 1.246z" fill="#A5C6E8"/></svg><svg xmlns:xlink="http://www.w3.org/1999/xlink" id="spezeffecty" xml:space="preserve" height="17" viewBox="0 0 17 17" width="17" version="1.1" y="125" x="0px" enable-background="new 0 0 17 17"><g fill="#A5C6E8"><path d="m2.649 14.853v-12.065c0-0.634-0.515-1.148-1.148-1.148h-0.353c-0.634 0-1.148 0.514-1.148 1.148v12.064c0 0.632 0.514 1.148 1.148 1.148h0.353c0.633 0.001 1.148-0.514 1.148-1.147z"/><path d="m15.043 9.559c-1.302 0.105-2.244-1.565-2.611-1.926-0.584-0.573-1.378-0.736-2.203-0.68-0.868 0.058-1.787 0.445-2.467 0.979-0.191 0.149-1.197 0.986-1.637 1.228-0.51 0.281-1.205 0.519-1.87 0.264-0.878-0.275-0.92-0.234 0.003 0.598 1.729 1.561 3.812 0.009 5.147-0.735 1.289-0.718 2.273 0.561 3.353 1.159 0.938 0.522 2.099 0.091 2.998-0.545 1.062-0.751 0.5-0.441-0.713-0.342z"/><path d="m15.043 5.334c-1.302 0.107-2.244-1.564-2.611-1.925-0.584-0.573-1.378-0.737-2.203-0.681-0.868 0.06-1.787 0.447-2.467 0.98-0.191 0.149-1.197 0.987-1.637 1.229-0.51 0.281-1.205 0.519-1.87 0.264-0.878-0.275-0.92-0.234 0.004 0.598 1.729 1.561 3.812 0.009 5.146-0.735 1.289-0.718 2.273 0.56 3.353 1.159 0.938 0.522 2.099 0.091 2.998-0.545 1.062-0.752 0.5-0.442-0.713-0.344z"/><path d="m15.043 13.781c-1.302 0.106-2.244-1.563-2.611-1.925-0.584-0.573-1.378-0.737-2.203-0.681-0.867 0.06-1.787 0.446-2.466 0.979-0.191 0.148-1.197 0.986-1.638 1.229-0.51 0.28-1.205 0.518-1.87 0.263-0.877-0.274-0.919-0.233 0.004 0.599 1.729 1.561 3.812 0.009 5.146-0.736 1.289-0.718 2.273 0.562 3.353 1.16 0.938 0.522 2.099 0.091 2.998-0.545 1.062-0.751 0.5-0.44-0.713-0.343z"/></g></svg><svg xmlns:xlink="http://www.w3.org/1999/xlink" id="stoiki" xml:space="preserve" height="17" viewBox="0 0 14 17" width="14" version="1.1" y="142" x="0px" enable-background="new 0 0 14 17"><g fill="#A5C6E8"><path d="m7.769 15.64v-12.326c0-0.354-0.288-0.641-0.642-0.641h-0.196c-0.355 0-0.642 0.287-0.642 0.641v12.323c0 0.354 0.287 0.642 0.642 0.642h0.197c0.353 0.002 0.641-0.287 0.641-0.639z"/><path d="m13.77 15.525l-1.52-1.519-0.072-0.071-1.654-1.657-0.847-0.845-0.674-0.673c-0.25-0.251-0.656-0.251-0.906 0l-0.139 0.138c-0.252 0.251-0.252 0.657 0 0.908l4.765 4.765c0.25 0.251 0.655 0.251 0.906 0l0.141-0.14c0.249-0.248 0.249-0.655 0-0.906z"/><path d="m5.055 10.761l-1.519 1.516-0.073 0.074-1.653 1.654-0.847 0.848-0.674 0.673c-0.25 0.251-0.25 0.657 0 0.908l0.14 0.138c0.25 0.251 0.657 0.251 0.906 0l4.766-4.765c0.25-0.251 0.25-0.657 0-0.908l-0.14-0.138c-0.249-0.251-0.656-0.251-0.906 0z"/><path d="m6.172 6.307h1.712c0.354 0 0.643-0.288 0.643-0.642v-0.197c0-0.354-0.288-0.641-0.643-0.641h-1.71c-0.354 0-0.642 0.287-0.642 0.641v0.196c-0.001 0.355 0.287 0.643 0.64 0.643z"/></g></svg><svg xmlns:xlink="http://www.w3.org/1999/xlink" id="svet" xml:space="preserve" height="17" viewBox="0 0 17 17" width="17" version="1.1" y="159" x="0px" enable-background="new 0 0 17 17"><g fill="#A5C6E8">	<path d="m8.431 4.821c-1.884 0-3.411 1.527-3.411 3.411 0 1.883 1.526 3.411 3.411 3.411s3.411-1.527 3.411-3.411c0-1.884-1.528-3.411-3.411-3.411zm0.025 5.725c-1.292 0-2.339-1.048-2.339-2.339 0-1.292 1.047-2.34 2.339-2.34s2.34 1.048 2.34 2.34c0 1.291-1.048 2.339-2.34 2.339z"/>	<ellipse cy="1.958" cx="8.431" rx="1.021" ry="1.27"/>	<ellipse cy="14.556" cx="8.431" rx="1.021" ry="1.27"/>	<ellipse cy="8.232" cx="14.729" rx="1.271" ry="1.02"/>	<ellipse cy="8.232" cx="2.132" rx="1.27" ry="1.02"/>		<ellipse rx="1.27" ry="1.021" transform="matrix(-.7071 -.7071 .7071 -.7071 4.1179 9.2614)" cy="3.778" cx="3.977"/>		<ellipse rx="1.27" ry="1.021" transform="matrix(.7077 .7065 -.7065 .7077 12.73 -5.3951)" cy="12.686" cx="12.885"/>		<ellipse rx="1.02" ry="1.269" transform="matrix(-.7069 -.7073 .7073 -.7069 19.32 15.562)" cy="3.778" cx="12.885"/>		<ellipse rx="1.02" ry="1.27" transform="matrix(.7069 .7073 -.7073 .7069 10.14 .9053)" cy="12.687" cx="3.978"/></g></svg></svg>
